<?xml version="1.0" encoding="UTF-8" standalone="no"?>
<!-- Created with Inkscape (http://www.inkscape.org/) -->

<svg
   xmlns:dc="http://purl.org/dc/elements/1.1/"
   xmlns:cc="http://creativecommons.org/ns#"
   xmlns:rdf="http://www.w3.org/1999/02/22-rdf-syntax-ns#"
   xmlns:svg="http://www.w3.org/2000/svg"
   xmlns="http://www.w3.org/2000/svg"
   xmlns:sodipodi="http://sodipodi.sourceforge.net/DTD/sodipodi-0.dtd"
   xmlns:inkscape="http://www.inkscape.org/namespaces/inkscape"
   width="96.346382mm"
   height="122.26664mm"
   viewBox="0 0 96.346382 122.26664"
   version="1.1"
   id="svg8"
   inkscape:version="0.92.4 (5da689c313, 2019-01-14)"
   sodipodi:docname="andy.svg">
  <defs
     id="defs2" />
  <sodipodi:namedview
     id="base"
     pagecolor="#ffffff"
     bordercolor="#666666"
     borderopacity="1.0"
     inkscape:pageopacity="0.0"
     inkscape:pageshadow="2"
     inkscape:zoom="0.49497475"
     inkscape:cx="-342.70877"
     inkscape:cy="508.14195"
     inkscape:document-units="mm"
     inkscape:current-layer="layer1"
     showgrid="false"
     fit-margin-top="0"
     fit-margin-left="0"
     fit-margin-right="0"
     fit-margin-bottom="0"
     inkscape:window-width="1920"
     inkscape:window-height="1017"
     inkscape:window-x="-8"
     inkscape:window-y="-8"
     inkscape:window-maximized="1" />
  <metadata
     id="metadata5">
    <rdf:RDF>
      <cc:Work
         rdf:about="">
        <dc:format>image/svg+xml</dc:format>
        <dc:type
           rdf:resource="http://purl.org/dc/dcmitype/StillImage" />
        <dc:title></dc:title>
      </cc:Work>
    </rdf:RDF>
  </metadata>
  <g
     inkscape:label="Layer 1"
     inkscape:groupmode="layer"
     id="layer1"
     transform="translate(-49.107029,-59.250367)">
    <path
       style="fill:#000000;stroke-width:0.08466667"
       d="m 85.758254,181.44682 c -1.02446,-0.0357 -2.42205,-0.0697 -3.10573,-0.0756 l -1.24307,-0.0107 -0.16972,-0.23835 c -0.14243,-0.20002 -0.15688,-0.29189 -0.0899,-0.5715 0.21453,-0.89565 0.42679,-2.61891 0.51443,-4.17649 0.0977,-1.73688 0.0871,-2.26403 -0.18817,-9.36466 -0.0644,-1.66147 -0.0585,-2.67892 0.0241,-4.14867 0.11791,-2.09818 0.11077,-5.31001 -0.02,-9.00471 -0.0808,-2.28146 -0.0849,-2.31836 -0.28006,-2.47186 -0.12717,-0.10003 -0.26311,-0.37724 -0.37969,-0.77429 -0.57137,-1.94587 -1.32933,-7.25826 -1.74926,-12.26014 -0.0723,-0.86148 -0.15173,-1.7249 -0.17644,-1.91871 l -0.0449,-0.35238 -0.65209,0.44665 c -2.37263,1.62513 -5.58932,2.74547 -10.47343,3.64781 -1.65004,0.30484 -4.24478,0.66152 -8.29734,1.14057 -2.00236,0.2367 -4.229741,0.52159 -4.949724,0.63309 l -1.309059,0.20272 -0.511274,-0.16857 c -1.159072,-0.38213 -2.189875,-1.34699 -2.839154,-2.65751 -0.582048,-1.17483 -0.709788,-1.80635 -0.71072,-3.51367 -7.62e-4,-1.37946 0.01534,-1.53423 0.233323,-2.24367 0.3949,-1.28524 0.914512,-2.17227 1.789277,-3.05449 0.632572,-0.63797 0.894863,-0.83489 1.544225,-1.15939 1.359023,-0.67913 4.319616,-1.55933 7.438726,-2.21158 2.29676,-0.48028 3.92854,-0.75756 8.01833,-1.3625 1.76034,-0.26038 4.56069,-0.69728 6.223,-0.97088 1.66231,-0.2736 3.23231,-0.52306 3.48888,-0.55435 l 0.46649,-0.0569 0.0147,-4.39545 c 0.0111,-3.33526 -0.01,-4.3953 -0.0855,-4.39479 -0.0551,3.4e-4 -2.1385,0.0757 -4.62981,0.16749 -9.55846,0.35202 -21.971085,0.76204 -23.092837,0.76281 l -0.529166,3.7e-4 v -0.3067 c 0,-0.25139 -0.0211,-0.28919 -0.117012,-0.20959 -0.143958,0.11947 -0.184797,-2.18791 -0.306301,-17.30605 -0.217928,-27.115668 -0.196994,-35.619151 0.08835,-35.890105 0.08248,-0.07832 0.518992,-0.145624 1.318684,-0.203327 0.702018,-0.05065 1.269864,-0.132765 1.375833,-0.198943 0.135169,-0.08441 0.218018,-0.08922 0.330205,-0.01916 0.111361,0.06955 1.028655,0.03259 3.577164,-0.144116 6.83938,-0.474219 9.23319,-0.594774 15.87341,-0.799399 4.61339,-0.142166 8.59442,-0.289671 22.81767,-0.845442 21.872156,-0.854651 28.082176,-1.05668 34.289996,-1.115551 l 5.03766,-0.04777 0.17654,0.200909 c 0.16874,0.192034 0.19249,0.500012 0.53761,6.971765 0.4867,9.126773 0.5295,10.822409 0.41787,16.554809 -0.10144,5.20985 -0.13432,10.52994 -0.084,13.589 0.0193,1.17406 -0.006,2.23311 -0.0645,2.667 -0.0531,0.39582 -0.13284,2.92947 -0.17718,5.63033 -0.0444,2.70087 -0.1223,5.34882 -0.1732,5.88434 -0.15817,1.66408 -0.52846,2.91802 -0.92424,3.12983 -0.1026,0.0549 -1.16661,0.0878 -2.85723,0.0882 -2.97638,7.6e-4 -11.49586,0.12983 -14.32385,0.21696 l -1.80878,0.0557 0.0526,0.39635 c 0.1677,1.26418 0.48949,4.40058 0.63925,6.23058 0.0953,1.16417 0.1959,2.36957 0.22362,2.67867 l 0.0504,0.56199 0.76256,-0.37891 c 1.55938,-0.77485 4.05926,-1.44102 6.58816,-1.75561 2.79149,-0.34725 5.70862,-0.40344 14.224,-0.27399 l 4.61433,0.0701 0.60712,0.29099 c 1.13209,0.54261 2.06253,1.80311 2.49759,3.38363 0.26869,0.97603 0.27001,2.89751 0.003,3.964 -0.58313,2.32682 -2.17866,4.26578 -4.14848,5.04145 -0.9344,0.36794 -3.75203,0.82493 -6.57894,1.06702 -2.05451,0.17595 -6.50468,0.28963 -11.43765,0.29218 -2.2394,0.001 -4.70066,0.0269 -5.46945,0.0572 l -1.3978,0.0551 -0.0581,1.7017 c -0.12869,3.77109 -0.49175,8.01236 -0.9914,11.58141 -0.17662,1.2616 -0.30752,1.93773 -0.39412,2.03579 -0.0713,0.0808 -0.86448,0.51858 -1.76258,0.97295 l -1.63292,0.82613 -0.0365,7.23971 c -0.0299,5.93035 -0.062,7.50003 -0.178,8.67905 -0.14886,1.51377 -0.44198,4.10546 -0.52283,4.62276 l -0.0476,0.30475 1.02096,0.19031 c 2.55248,0.47578 4.27062,1.39459 5.11239,2.73394 0.42998,0.68415 0.62914,1.25147 0.90501,2.578 0.31452,1.51242 0.29417,1.57279 -0.57726,1.71251 -2.24838,0.36052 -4.61274,0.46151 -9.41385,0.40212 l -4.10633,-0.0508 -0.15613,-0.19117 c -0.10669,-0.13064 -0.14198,-0.27223 -0.11144,-0.44713 0.61528,-3.52382 0.67992,-5.20347 0.43019,-11.17796 -0.0871,-2.08296 -0.11705,-3.97855 -0.085,-5.37633 0.0272,-1.18745 0.072,-3.62 0.0995,-5.40566 0.0482,-3.12635 0.0443,-3.24495 -0.10584,-3.20033 -0.41622,0.12368 -2.05466,0.39608 -3.0769,0.51157 -3.385116,0.3824 -6.575206,0.18943 -9.748256,-0.58969 -0.65906,-0.16183 -1.22134,-0.27118 -1.24951,-0.24301 -0.0282,0.0282 -0.0763,2.38168 -0.10687,5.23001 -0.0638,5.94065 -0.0971,6.41761 -0.89089,12.77316 -0.0568,0.45443 -0.16558,0.39302 1.09638,0.61863 1.83178,0.32747 3.31772,1.01345 4.30575,1.98771 0.96599,0.95253 1.36153,1.83921 1.7605,3.9465 0.23344,1.23299 0.25276,1.21538 -1.57442,1.43514 -1.29587,0.15586 -5.62544,0.22054 -8.36702,0.125 z m 5.88434,-0.67519 c 1.09431,-0.0414 2.32099,-0.12187 2.72594,-0.17876 l 0.73628,-0.10346 -0.0457,-0.26298 c -0.12373,-0.71204 -0.45969,-2.00131 -0.61687,-2.36727 -0.77145,-1.7961 -2.51168,-2.8478 -5.50088,-3.3244 -0.79297,-0.12644 -0.97996,-0.18475 -1.07948,-0.33665 -0.10572,-0.16134 -0.0897,-0.42474 0.1316,-2.16219 0.63805,-5.00982 0.77012,-7.25983 0.7703,-13.123 l 1.7e-4,-4.11721 -0.5715,-0.1404 c -1.87791,-0.46135 -4.24652,-1.41963 -5.67893,-2.29754 l -0.3661,-0.22438 0.0698,2.73903 c 0.0797,3.13115 0.0769,5.27344 -0.0119,9.00437 -0.0459,1.92931 -0.0266,3.46755 0.0731,5.80618 0.15691,3.68184 0.1705,5.8176 0.0476,7.48649 -0.082,1.1144 -0.37146,3.19723 -0.46539,3.34921 -0.076,0.12293 0.62414,0.16444 3.98235,0.23611 1.8161,0.0387 3.4163,0.0753 3.556,0.0813 0.1397,0.006 1.14935,-0.023 2.24367,-0.0645 z m 22.986996,-0.0854 c 0.94925,-0.0868 2.43625,-0.26673 2.47891,-0.29997 0.0539,-0.042 -0.40211,-1.98452 -0.57083,-2.43146 -0.65924,-1.74626 -2.3637,-2.77134 -5.40234,-3.249 -0.6788,-0.10671 -0.95456,-0.1879 -1.09099,-0.32122 l -0.18257,-0.17842 0.16077,-1.27 c 0.27299,-2.15655 0.49576,-4.58031 0.58363,-6.35 0.0739,-1.48769 0.12763,-12.91166 0.0608,-12.91166 -0.0141,0 -0.44273,0.15251 -0.9525,0.33891 -1.0969,0.4011 -3.20022,1.01047 -4.42515,1.28206 l -0.87364,0.1937 0.0206,2.54283 c 0.0115,1.41443 -0.0308,3.41925 -0.0952,4.51782 -0.097,1.65554 -0.0977,2.44987 -0.004,4.91067 0.26055,6.85086 0.21696,10.00245 -0.1698,12.27859 -0.0898,0.5285 -0.16328,0.97532 -0.16328,0.99292 0,0.12696 9.16835,0.0875 10.62567,-0.0458 z M 99.093254,155.6179 c 4.435166,-0.314 8.777836,-1.59834 13.585566,-4.01787 1.7698,-0.89068 1.53302,-0.51464 1.86477,-2.9616 0.35998,-2.6553 0.60614,-5.19746 0.82407,-8.5106 0.16873,-2.56526 0.14004,-11.78446 -0.0459,-14.732 -0.19604,-3.10845 -0.43528,-5.91229 -0.73846,-8.65447 -0.13755,-1.24417 -0.2501,-2.32346 -0.2501,-2.39841 0,-0.12162 -0.14338,-0.13086 -1.3335,-0.0859 -0.73342,0.0277 -2.76225,0.0889 -4.5085,0.13589 -4.10973,0.11064 -14.470856,0.45124 -22.756216,0.74806 -4.34176,0.15554 -6.57386,0.26568 -6.6356,0.32742 -0.11758,0.11758 -0.0437,11.77438 0.0908,14.33005 0.30509,5.79569 0.64817,9.96377 1.15336,14.01233 0.40786,3.26857 1.08663,6.89695 1.30377,6.96937 0.044,0.0147 0.30119,0.16867 0.57146,0.3422 1.30859,0.84016 3.63217,2.0425 4.66445,2.41361 0.33937,0.122 1.00612,0.31966 1.48166,0.43923 0.54941,0.13814 0.91093,0.27573 0.99163,0.37739 0.2432,0.30637 2.72787,0.89802 4.78366,1.13909 1.8834,0.22086 3.15742,0.25331 4.953,0.12618 z m -7.37077,-14.05965 c -0.21969,-0.4105 0.17274,-1.29066 1.14737,-2.57342 0.3892,-0.51223 0.97856,-1.38209 1.3097,-1.93303 0.92241,-1.53466 2.66178,-4.88345 2.57629,-4.96011 -0.0416,-0.0373 -1.02809,-0.82231 -2.19225,-1.7445 -2.48957,-1.97211 -3.45265,-2.82223 -3.78163,-3.3381 -0.30015,-0.47067 -0.31438,-0.86928 -0.0408,-1.14286 0.38669,-0.38669 0.88157,-0.42807 5.12011,-0.42807 h 3.92235 l 0.626216,-1.58906 c 2.14528,-5.44368 3.67791,-6.94228 5.13215,-5.01817 0.59798,0.79118 1.09377,2.25598 1.66873,4.93023 l 0.32414,1.50767 1.4307,0.0184 c 1.25446,0.0161 4.21446,0.28182 4.32045,0.38781 0.0212,0.0212 0.0595,0.16825 0.0853,0.32685 0.0467,0.28761 0.0404,0.29383 -2.37429,2.35778 -1.49787,1.2803 -2.42108,2.12715 -2.42108,2.22084 0,0.21047 0.60875,3.02012 0.9314,4.29883 0.14676,0.58162 0.4703,1.68615 0.71898,2.4545 0.24868,0.76835 0.51546,1.7018 0.59284,2.07433 0.28474,1.3708 -0.0893,2.24367 -0.96147,2.24367 -1.19154,0 -3.17014,-1.303 -7.11995,-4.68883 -0.57999,-0.49718 -1.09434,-0.88865 -1.143,-0.86995 -0.0487,0.0187 -0.73617,0.5186 -1.5278,1.11087 -1.826036,1.36617 -4.587106,3.20927 -5.630326,3.75841 -1.43047,0.75299 -2.50391,0.98868 -2.71411,0.59592 z m 1.38608,-0.68396 c 0.74068,-0.3119 1.89549,-0.99 3.37584,-1.98229 1.5048,-1.00867 4.556186,-3.24856 4.556186,-3.34449 0,-0.0695 -3.643676,-2.9813 -3.680296,-2.94105 -0.0142,0.0156 -0.28045,0.53797 -0.59168,1.16082 -1.22781,2.45715 -2.43486,4.50119 -3.31616,5.61563 -0.30558,0.38642 -0.66691,0.92166 -0.80295,1.18942 -0.28741,0.56569 -0.2405,0.59654 0.45906,0.30196 z m 16.968766,-0.006 c 0.28423,-0.36329 0.14846,-1.26604 -0.48658,-3.23518 -0.56696,-1.75807 -0.89766,-3.01397 -1.34502,-5.10814 -0.17203,-0.80528 -0.34909,-1.45938 -0.39346,-1.45355 -0.0444,0.006 -0.78553,0.59156 -1.64702,1.30164 -0.86148,0.71007 -2.11285,1.72233 -2.78083,2.24946 l -1.2145,0.95843 0.40458,0.34708 c 2.81084,2.4114 4.24236,3.53805 5.43635,4.27858 1.10435,0.68494 1.82434,0.92003 2.02648,0.66168 z m -6.15808,-7.54718 c 2.02254,-1.61571 3.81,-3.12566 3.80971,-3.21822 -1.7e-4,-0.0512 -0.17161,-0.98144 -0.381,-2.06718 -0.20939,-1.08574 -0.38064,-1.98109 -0.38056,-1.98967 8e-5,-0.009 -0.56189,0.009 -1.24883,0.0381 -0.68694,0.0295 -2.18702,0.0581 -3.3335,0.0635 l -2.08452,0.01 -0.22251,0.62676 c -0.122376,0.34472 -0.698816,1.62919 -1.280976,2.85439 -0.58216,1.22519 -1.05847,2.25135 -1.05847,2.28034 0,0.029 0.65722,0.57104 1.4605,1.20454 0.803266,0.6335 1.687006,1.34029 1.963856,1.57064 l 0.50337,0.41883 0.5973,-0.47319 c 0.32851,-0.26026 1.07355,-0.85365 1.65563,-1.31865 z m -5.911646,-3.66368 c 0.86902,-1.80717 1.50899,-3.24518 1.50899,-3.39072 0,-0.11204 -6.62211,-0.20664 -7.48628,-0.10694 -0.36883,0.0426 -0.7093,0.11605 -0.75659,0.16335 -0.1217,0.1217 0.27336,0.58755 1.17689,1.38777 0.83072,0.73574 4.63681,3.7726 4.68077,3.73477 0.0153,-0.0131 0.40959,-0.81786 0.87622,-1.78823 z m 10.895486,-0.43627 c 3.43643,-2.93559 3.42341,-2.92363 3.25202,-2.98703 -0.31705,-0.11729 -2.43584,-0.25913 -3.45645,-0.2314 l -1.02027,0.0277 0.34293,1.79894 c 0.18862,0.98942 0.35681,1.79905 0.37377,1.79917 0.017,8e-5 0.24556,-0.18321 0.508,-0.4074 z m -3.77849,-3.81657 c 0.87249,-0.0348 1.61056,-0.0875 1.64017,-0.1171 0.0751,-0.0751 -0.5024,-2.68752 -0.86459,-3.9115 -0.38206,-1.29117 -0.77535,-2.14255 -1.12605,-2.43764 -0.32977,-0.27748 -0.45065,-0.2859 -0.82079,-0.0571 -0.77336,0.47797 -2.01737,2.80429 -3.16712,5.92257 l -0.24937,0.67634 1.5007,-0.006 c 0.82539,-0.003 2.21456,-0.0346 3.08705,-0.0694 z m -50.595899,15.82496 c 0.602512,-0.0924 2.865493,-0.37873 5.028853,-0.63639 5.7851,-0.68905 7.30186,-0.91837 10.14645,-1.53409 3.79077,-0.82051 6.90535,-2.09587 8.72147,-3.57126 l 0.37188,-0.30211 -0.0554,-0.93696 c -0.12246,-2.07222 -0.30017,-5.86476 -0.35435,-7.56212 -0.0316,-0.98955 -0.0665,-1.79917 -0.0776,-1.79917 -0.09,0 -2.70568,0.41528 -4.53216,0.71956 -1.23401,0.20558 -3.42476,0.54691 -4.86833,0.7585 -6.74518,0.98869 -9.91274,1.61435 -13.123333,2.59216 -2.596779,0.79086 -3.270904,1.11712 -4.194625,2.03009 -1.300395,1.28527 -1.929904,3.07133 -1.833725,5.20269 0.10476,2.32152 1.07227,4.13515 2.618675,4.90879 0.327851,0.16401 0.699717,0.29821 0.82637,0.29821 0.126652,0 0.72324,-0.0756 1.325751,-0.1679 z m 69.287219,-6.1418 c 8.33219,-0.061 10.90279,-0.17906 13.97,-0.64153 1.92134,-0.2897 2.69364,-0.48307 3.51367,-0.87976 1.62834,-0.78771 2.76682,-2.29348 3.27797,-4.3355 0.26655,-1.06482 0.26374,-2.75217 -0.006,-3.70554 -0.35658,-1.25949 -1.05932,-2.25149 -1.97318,-2.78539 l -0.3947,-0.2306 -2.6533,-0.0356 c -1.4593,-0.0196 -4.15823,-0.0748 -5.99761,-0.12269 -7.01383,-0.18271 -11.38666,0.19665 -14.68826,1.2743 -1.34216,0.43808 -2.9168,1.21176 -2.87483,1.41252 0.0818,0.39109 0.21108,4.70169 0.21865,7.28887 l 0.009,2.90975 0.56113,-0.0507 c 0.30862,-0.0279 3.47578,-0.0721 7.03813,-0.0982 z M 55.574589,115.48641 c 5.385525,-0.16118 10.459455,-0.33208 11.408355,-0.38425 0.91861,-0.0505 0.9506,-0.0587 0.91145,-0.23453 -0.0833,-0.3741 -0.47593,-6.69192 -0.76108,-12.24717 -0.4783,-9.31837 -1.03679,-22.39678 -1.48238,-34.713337 -0.0952,-2.631017 -0.19424,-4.983692 -0.22013,-5.228167 l -0.0471,-0.4445 -0.43841,-8.12e-4 c -0.59855,-0.0011 -3.76157,0.167662 -4.09156,0.21832 -0.23784,0.03651 -0.27293,0.07934 -0.32652,0.398535 -0.10074,0.600065 -0.0441,2.024858 0.17581,4.421626 0.53849,5.869247 0.63066,6.969175 0.71661,8.551333 0.12479,2.297372 0.008,3.684432 -0.34743,4.136662 -0.15698,0.19958 -0.17765,0.20371 -0.4184,0.0836 -0.13928,-0.0695 -0.25325,-0.16824 -0.25325,-0.21945 0,-0.0754 -1.93516,-2.01116 -2.01052,-2.01116 -0.0709,0 -1.20681,1.6192 -1.20681,1.72032 0,0.2085 -0.386,0.40635 -0.61955,0.31756 -0.20494,-0.0779 -0.34783,-0.30239 -0.2713,-0.42621 0.0226,-0.0365 -0.25888,-0.33719 -0.625439,-0.66817 l -0.666463,-0.60178 -0.427382,0.58575 c -0.502747,0.68905 -0.681937,0.8173 -1.219337,0.87272 -0.622546,0.0642 -0.655011,0.01 -0.744598,-1.2519 -0.164584,-2.317577 -0.50398,-11.799367 -0.50528,-14.11612 l -6.53e-4,-1.164167 -0.359833,6.01e-4 c -0.197908,3.3e-4 -0.614195,0.02463 -0.925081,0.05399 -0.518568,0.04898 -0.570072,0.07166 -0.623664,0.274565 -0.09801,0.371087 -0.04642,22.094051 0.08709,36.670181 0.06931,7.56708 0.126499,14.17145 0.127086,14.67638 l 0.0011,0.91805 1.164167,-0.0518 c 0.640291,-0.0285 2.440516,-0.09 4.0005,-0.13669 z m 26.881665,-0.93048 c 6.47277,-0.22923 14.14992,-0.4926 17.06034,-0.58527 2.910406,-0.0927 5.901256,-0.19027 6.646326,-0.21689 4.88208,-0.17444 19.12695,-0.4577 24.68033,-0.49076 l 2.83634,-0.0169 0.18417,-0.55065 c 0.32106,-0.95991 0.36692,-1.62696 0.44823,-6.51901 0.073,-4.3926 0.16476,-6.57309 0.32779,-7.78934 0.0343,-0.25611 0.0297,-1.22766 -0.0102,-2.159 -0.04,-0.93133 -0.0414,-4.03648 -0.003,-6.90033 0.0381,-2.86385 0.0693,-7.5311 0.0693,-10.37167 0,-5.033238 -0.01,-5.340796 -0.37973,-12.086164 l -0.37974,-6.9215 -2.79527,8.58e-4 c -4.85495,0.0015 -13.63626,0.282602 -35.688266,1.142474 -15.96109,0.622368 -18.34743,0.711034 -23.95539,0.890073 -2.95408,0.09431 -5.37658,0.180202 -5.38333,0.190869 -0.007,0.01067 0.018,0.686143 0.0551,1.50106 0.0371,0.814916 0.14551,3.539066 0.24099,6.053666 0.72974,19.219114 1.40189,33.713654 1.95134,42.079334 0.0918,1.397 0.19054,2.70351 0.21953,2.90337 l 0.0527,0.36336 1.02702,-0.0504 c 0.56487,-0.0277 6.32293,-0.23796 12.79569,-0.46719 z m 4.91067,-6.27484 c -4.73549,-0.60152 -8.27886,-4.82607 -9.56032,-11.3982 -0.44474,-2.2809 -0.48887,-2.8665 -0.5327,-7.06828 -0.0269,-2.57778 -0.008,-4.36416 0.0548,-5.12233 0.35947,-4.35479 1.57104,-8.32355 3.52441,-11.544953 1.6517,-2.723901 3.92386,-4.889518 6.12628,-5.839036 1.2633,-0.544635 1.66589,-0.625053 3.13919,-0.627052 1.14268,-0.0016 1.39442,0.02388 1.94733,0.196695 3.8149,1.192394 6.7135,5.253879 8.418896,11.796466 0.60083,2.30499 1.02801,4.77097 1.37616,7.94406 0.2081,1.89669 0.20534,6.31468 -0.005,7.874 -0.28988,2.14966 -0.84817,4.01012 -1.7457,5.81735 -0.841106,1.69361 -1.961206,3.21442 -3.112896,4.22649 -0.68219,0.59949 -2.46408,1.87386 -3.28053,2.34616 -1.29485,0.74904 -2.76987,1.23901 -4.23535,1.40688 -0.86867,0.0995 -1.27887,0.0979 -2.11465,-0.008 z m 2.87867,-0.86382 0.508,-0.10835 -0.80434,-0.0561 c -3.92801,-0.27403 -7.00522,-3.46588 -8.2971,-8.60623 -0.60231,-2.39655 -0.72009,-3.68058 -0.71892,-7.83712 0.001,-3.74962 0.0671,-4.60963 0.52015,-6.77003 1.12083,-5.34523 3.97425,-9.718549 7.43368,-11.393289 1.18008,-0.571287 1.73883,-0.705348 2.96719,-0.711917 0.83954,-0.0045 1.12566,0.029 1.64736,0.192825 2.4926,0.782729 4.42529,2.833563 5.93655,6.299431 0.22855,0.52414 0.41589,0.91861 0.41632,0.8766 0.001,-0.13838 -0.58296,-2.19534 -0.83219,-2.92929 -1.23354,-3.632614 -3.01484,-6.375974 -5.05641,-7.787313 -3.78881,-2.619199 -8.5371,-0.943751 -11.98822,4.230071 -1.97676,2.963517 -3.25185,6.641512 -3.75752,10.838572 -0.18115,1.50358 -0.26019,7.17792 -0.12796,9.18634 0.23383,3.55173 0.88766,6.41183 2.00184,8.75678 1.61727,3.40378 4.08754,5.43955 7.19541,5.92981 0.61691,0.0973 2.27108,0.0353 2.95616,-0.11078 z m 27.216536,-0.23323 c -1.32692,-0.17162 -2.86876,-0.77252 -4.11693,-1.6045 -0.91545,-0.6102 -2.39347,-2.12664 -3.09635,-3.17685 -1.68082,-2.51137 -2.72028,-5.56604 -3.23916,-9.5189 -0.0703,-0.53552 -0.16648,-1.92617 -0.21374,-3.09033 -0.0473,-1.16417 -0.12508,-2.97392 -0.17293,-4.02167 -0.16286,-3.56623 0.18006,-6.21846 1.20023,-9.28287 0.97998,-2.943719 2.59485,-5.619828 4.56549,-7.565797 2.84197,-2.8064 6.17882,-3.841727 9.22585,-2.862507 4.02455,1.293364 7.15818,6.081531 8.79968,13.445844 1.0394,4.66309 1.56321,11.20192 1.14963,14.351 -0.49208,3.74683 -1.97965,7.00136 -4.1989,9.18643 -0.73979,0.72839 -2.58441,2.1843 -3.35663,2.6493 -2.06228,1.24181 -4.38381,1.77052 -6.54624,1.49085 z m 3.33933,-0.95858 c 0.46083,-0.11817 0.84807,-0.22517 0.86053,-0.23777 0.0125,-0.0126 -0.42172,-0.0257 -0.96487,-0.0292 -5.18699,-0.0329 -8.98995,-4.91809 -9.78865,-12.57421 -0.28302,-2.71302 -0.33962,-8.25584 -0.10018,-9.81084 1.32844,-8.627146 7.69907,-14.411765 13.14988,-11.940253 1.79354,0.813227 3.46947,2.632383 4.73973,5.144763 0.52842,1.04512 0.51441,0.91437 -0.10223,-0.954524 -1.45176,-4.399901 -3.57486,-7.377989 -6.17675,-8.664188 -0.82464,-0.407644 -1.40354,-0.578105 -2.30639,-0.679114 -3.82507,-0.427946 -7.92848,2.526262 -10.42831,7.507758 -1.60829,3.204898 -2.37718,6.759848 -2.26485,10.471548 0.0254,0.8382 0.0829,2.7432 0.12784,4.23333 0.0449,1.49013 0.14414,3.24273 0.22044,3.89467 0.91848,7.84763 4.33538,12.86263 9.40194,13.79924 0.99167,0.18332 2.55966,0.11371 3.63187,-0.16124 z M 60.744564,76.168984 c -0.0915,-1.735855 -0.17935,-2.789722 -0.72049,-8.642861 -0.28718,-3.106225 -0.34317,-4.24281 -0.22914,-4.651906 0.0512,-0.183648 0.0846,-0.341576 0.0742,-0.350951 -0.0143,-0.01291 -6.852101,0.453838 -6.883378,0.469859 -0.0036,0.0018 0.01027,0.117631 0.03078,0.257331 0.02899,0.197555 0.0052,0.254 -0.107199,0.254 -0.133584,0 -0.140452,0.148455 -0.09107,1.9685 0.1995,7.352834 0.418178,12.396734 0.562269,12.968974 0.05499,0.21837 0.141533,0.3805 0.194139,0.36369 0.05221,-0.0167 0.353191,-0.3897 0.668853,-0.82892 0.713104,-0.99222 0.821389,-1.10167 1.034763,-1.04585 0.22078,0.0577 0.39524,0.4108 0.266578,0.53947 -0.06717,0.0672 0.07659,0.25544 0.521885,0.68342 0.33804,0.3249 0.64582,0.59072 0.68396,0.59072 0.0381,0 0.23562,-0.23813 0.43883,-0.52917 0.5859,-0.83911 1.08294,-1.3337 1.33881,-1.3322 0.29848,0.002 0.38071,0.0676 0.58305,0.46682 0.0951,0.18762 0.49052,0.6446 0.87875,1.01551 l 0.70587,0.67439 0.0732,-0.50751 c 0.0444,-0.30784 0.0347,-1.23763 -0.0246,-2.363316 z"
       id="path4529"
       inkscape:connector-curvature="0" />
  </g>
</svg>
