<?xml version="1.0" encoding="UTF-8" standalone="no"?>
<!-- Created with Inkscape (http://www.inkscape.org/) -->

<svg
   xmlns:dc="http://purl.org/dc/elements/1.1/"
   xmlns:cc="http://creativecommons.org/ns#"
   xmlns:rdf="http://www.w3.org/1999/02/22-rdf-syntax-ns#"
   xmlns:svg="http://www.w3.org/2000/svg"
   xmlns="http://www.w3.org/2000/svg"
   xmlns:sodipodi="http://sodipodi.sourceforge.net/DTD/sodipodi-0.dtd"
   xmlns:inkscape="http://www.inkscape.org/namespaces/inkscape"
   width="75.225243mm"
   height="123.25842mm"
   viewBox="0 0 75.225243 123.25842"
   version="1.1"
   id="svg8"
   inkscape:version="0.92.4 (5da689c313, 2019-01-14)"
   sodipodi:docname="bulb.svg">
  <defs
     id="defs2" />
  <sodipodi:namedview
     id="base"
     pagecolor="#ffffff"
     bordercolor="#666666"
     borderopacity="1.0"
     inkscape:pageopacity="0.0"
     inkscape:pageshadow="2"
     inkscape:zoom="1.4"
     inkscape:cx="-127.32242"
     inkscape:cy="295.01314"
     inkscape:document-units="mm"
     inkscape:current-layer="layer1"
     showgrid="false"
     fit-margin-top="0"
     fit-margin-left="0"
     fit-margin-right="0"
     fit-margin-bottom="0"
     inkscape:window-width="1920"
     inkscape:window-height="1017"
     inkscape:window-x="-8"
     inkscape:window-y="-8"
     inkscape:window-maximized="1" />
  <metadata
     id="metadata5">
    <rdf:RDF>
      <cc:Work
         rdf:about="">
        <dc:format>image/svg+xml</dc:format>
        <dc:type
           rdf:resource="http://purl.org/dc/dcmitype/StillImage" />
        <dc:title></dc:title>
      </cc:Work>
    </rdf:RDF>
  </metadata>
  <g
     inkscape:label="Layer 1"
     inkscape:groupmode="layer"
     id="layer1"
     transform="translate(-100.83607,-63.652)">
    <path
       style="fill:#000000;stroke-width:0.08466667"
       d="m 115.9946,186.78609 c -6.24134,-0.87355 -10.67801,-2.04261 -12.3009,-3.24129 -0.54435,-0.40206 -0.58377,-0.55328 -0.313,-1.20075 0.41013,-0.98071 0.99067,-1.87216 1.64957,-2.53295 1.18524,-1.18869 2.38867,-1.63287 5.49159,-2.02694 0.71532,-0.0908 1.31054,-0.17682 1.3227,-0.19103 0.0122,-0.0142 0.0862,-0.48306 0.16444,-1.04186 0.66219,-4.72691 1.152,-7.41362 1.7442,-9.56733 0.33904,-1.23302 2.30744,-7.26964 2.43297,-7.46136 0.14262,-0.2178 3.24945,-2.13873 5.39643,-3.33656 1.94422,-1.08471 6.81677,-3.46842 7.08981,-3.46842 0.053,0 0.0131,-0.0777 -0.0888,-0.17263 -0.10191,-0.0949 -0.1853,-0.20925 -0.1853,-0.254 0,-0.0447 -0.0554,-0.0814 -0.12319,-0.0814 -0.21506,0 -2.07586,-1.30345 -3.34367,-2.34217 -0.67276,-0.55118 -1.76265,-1.52511 -2.42198,-2.16428 l -1.19878,-1.16212 -0.54509,0.0509 c -0.46092,0.043 -0.60334,0.0215 -0.92235,-0.13925 -1.00133,-0.50471 -1.52027,-1.24182 -1.52027,-2.15941 0,-0.6111 0.28348,-1.26427 0.70127,-1.61582 0.14562,-0.12253 0.27456,-0.28691 0.28652,-0.36529 0.039,-0.25558 0.82965,-2.28122 2.00302,-5.13173 1.09028,-2.64867 1.78455,-4.44624 1.73199,-4.48439 -0.0131,-0.01 -0.27145,-0.0833 -0.57413,-0.16401 -1.47566,-0.39342 -2.69354,-0.82848 -4.89851,-1.74984 l -2.40552,-1.00518 -0.64482,0.0535 -0.64482,0.0535 -1.10067,0.86471 c -1.76171,1.38404 -2.63355,1.88659 -4.73793,2.7311 l -0.75859,0.30443 -1.40041,-0.7145 c -1.43476,-0.73202 -3.21416,-1.86083 -4.29511,-2.72472 -0.75011,-0.59948 -0.74596,-0.58209 -0.74596,-3.12439 0,-2.40607 -0.16602,-2.21393 1.87986,-2.17562 1.34397,0.0252 1.5628,0.0484 1.69438,0.17996 0.12872,0.12869 0.15737,0.35572 0.19343,1.53289 l 0.0423,1.38182 0.59266,0.45241 c 0.32597,0.24882 0.90853,0.6925 1.29459,0.98595 0.38605,0.29345 0.77727,0.53354 0.86937,0.53354 0.2421,0 1.80635,-0.80013 2.45038,-1.2534 0.30268,-0.21303 0.78795,-0.58014 1.07837,-0.81579 l 0.52803,-0.42847 0.003,-0.508 c 0.004,-0.64452 0.12052,-1.14922 0.38992,-1.68976 0.24427,-0.49012 0.8814,-1.17657 1.22362,-1.31832 0.21127,-0.0875 0.24588,-0.16571 0.36753,-0.83027 0.19788,-1.08105 0.24907,-1.90638 0.18058,-2.91124 l -0.061,-0.89552 -0.35228,-0.13155 c -0.19375,-0.0724 -0.94282,-0.28973 -1.6646,-0.48307 -0.72178,-0.19334 -1.36991,-0.36868 -1.44028,-0.38965 -0.0704,-0.021 -0.47042,0.17924 -0.889,0.44493 -2.34843,1.49058 -2.1879,1.45361 -2.80087,0.64512 -0.5822,-0.76791 -1.30452,-1.98605 -1.30452,-2.19998 0,-0.0957 0.10966,-0.26625 0.24369,-0.37902 0.51394,-0.43246 2.71275,-1.846 3.4642,-2.22701 0.91902,-0.46599 0.92631,-0.46602 2.51511,-0.008 1.54636,0.44547 2.61029,0.86446 4.21258,1.65898 1.68535,0.83571 1.50705,0.57976 1.67734,2.40782 0.14767,1.58528 0.0626,3.19398 -0.25562,4.83553 -0.14445,0.74506 -0.26604,1.43086 -0.2702,1.524 -0.004,0.0931 0.083,0.4126 0.19361,0.70993 l 0.20117,0.5406 2.92023,0.98708 c 1.60612,0.54289 3.57562,1.26165 4.37667,1.59723 0.80104,0.33559 1.51693,0.61016 1.59087,0.61016 0.21477,0 0.74325,0.3022 0.98585,0.56374 0.35366,0.38127 0.51899,0.78925 0.5617,1.3861 0.0476,0.66522 -0.16745,1.25653 -0.61458,1.6899 -0.15626,0.15146 -0.26496,0.3253 -0.24155,0.38632 0.0234,0.061 -0.11785,0.67554 -0.31392,1.36561 -0.7695,2.70821 -1.48705,4.50675 -2.86508,7.18133 -0.69963,1.35789 -0.82234,1.73566 -0.5638,1.73566 0.15391,0 3.31664,2.65716 4.21277,3.53935 0.49362,0.48593 0.74987,0.68563 0.77521,0.6041 0.0208,-0.067 0.0867,-0.36943 0.1465,-0.67211 0.10333,-0.52329 0.14039,-0.58154 0.75415,-1.18534 0.41579,-0.40904 0.89123,-0.77057 1.33614,-1.016 0.66315,-0.36582 0.82597,-0.508 0.58176,-0.508 -0.0626,0 -0.33913,-0.14559 -0.61445,-0.32353 -0.54632,-0.35311 -1.47301,-1.46466 -1.47301,-1.76686 0,-0.3019 1.35135,-1.65126 1.99281,-1.98989 l 0.56285,-0.29712 -0.41,-0.23741 c -0.66817,-0.38692 -0.99952,-0.68323 -1.51153,-1.35171 -0.37272,-0.48661 -0.47303,-0.67782 -0.43504,-0.8292 0.0272,-0.10821 0.27208,-0.51892 0.54427,-0.91268 0.36992,-0.53515 0.64659,-0.82509 1.09568,-1.14822 l 0.60079,-0.43229 -0.49888,-0.48936 c -0.37133,-0.36424 -0.6183,-0.72282 -0.96592,-1.40241 -0.25687,-0.50218 -0.46703,-0.97768 -0.46703,-1.05668 0,-0.17775 0.47072,-0.82358 0.90366,-1.23981 0.1782,-0.17132 0.60975,-0.47151 0.959,-0.66708 0.34925,-0.19557 0.65168,-0.37052 0.67205,-0.38877 0.0204,-0.0183 -0.11597,-0.19432 -0.30301,-0.39126 -0.85866,-0.90407 -1.21187,-1.57606 -1.59002,-3.02505 -0.1276,-0.48895 -0.32172,-1.02235 -0.43138,-1.18534 -0.70422,-1.04666 -0.86639,-2.47574 -0.43084,-3.79675 0.1281,-0.38854 0.2206,-0.71323 0.20556,-0.72155 -0.0151,-0.008 -0.45075,-0.12007 -0.96822,-0.24834 -2.45463,-0.60846 -5.04114,-1.92177 -7.22947,-3.67078 -1.04545,-0.83557 -2.8897,-2.71946 -3.76007,-3.8409 -3.61504,-4.6578 -5.86389,-10.28487 -6.74979,-16.889347 -0.16899,-1.259842 -0.19353,-1.808875 -0.19677,-4.402667 -0.004,-3.248874 0.0701,-4.134065 0.5549,-6.622929 1.39875,-7.180889 5.0693,-13.014013 10.57506,-16.805548 5.88815,-4.054867 13.94553,-5.659243 22.81767,-4.543428 8.9868,1.130236 16.16638,4.971936 20.81367,11.137135 3.68396,4.887228 5.58779,10.831471 5.58166,17.427437 -0.003,3.668603 -0.53088,6.91555 -1.6818,10.352687 -3.15846,9.43257 -10.2077,16.10609 -18.76281,17.76277 l -0.73795,0.14291 0.20155,0.34882 c 0.32324,0.55943 0.47001,1.19776 0.47001,2.04406 0,0.83846 -0.13012,1.40665 -0.4132,1.80419 -0.15389,0.21612 -0.17946,0.37192 -0.17946,1.09326 0,1.51776 -0.46268,2.76712 -1.35658,3.66312 l -0.46758,0.46867 0.48379,0.44673 c 0.46028,0.42502 1.42503,1.81296 1.42503,2.05011 0,0.0614 -0.149,0.41923 -0.33111,0.79516 -0.34064,0.70318 -0.87515,1.33121 -1.46545,1.72185 l -0.31587,0.20904 0.49062,0.3171 c 0.26983,0.1744 0.62469,0.48429 0.78856,0.68864 0.39739,0.49556 0.91792,1.3751 0.91792,1.551 0,0.36874 -0.64395,1.30563 -1.19888,1.74428 -0.23375,0.18477 -0.38347,0.33594 -0.33272,0.33594 0.0508,0 0.0923,0.0718 0.0923,0.1596 0,0.0878 0.0857,0.21589 0.1905,0.28471 0.59429,0.39032 1.67216,1.79583 1.67216,2.18045 0,0.30453 -0.93188,1.41415 -1.51258,1.80108 l -0.20025,0.13343 0.41192,0.2096 c 0.22655,0.11528 0.55858,0.35627 0.73785,0.53553 0.33118,0.33119 0.7324,1.01838 0.7324,1.25445 0,0.0797 0.0766,0.12982 0.19854,0.12982 0.1092,0 0.25848,0.0667 0.33172,0.14816 0.18847,0.20969 0.43511,2.32109 0.37335,3.19617 -0.049,0.69457 -0.41496,2.41658 -0.57301,2.69641 -0.0486,0.086 -0.0762,0.16685 -0.0613,0.1796 0.0149,0.0128 0.80808,0.43363 1.7627,0.93531 3.4566,1.81653 6.39236,3.54692 9.48266,5.58926 2.11184,1.39568 4.33097,2.96057 4.41125,3.11073 0.0306,0.0572 0.21036,0.75172 0.39951,1.54336 0.83183,3.48153 1.11594,5.46674 1.9024,13.29266 l 0.18718,1.86267 0.93133,0.0627 c 1.90625,0.12826 3.31496,0.52299 4.38818,1.22956 0.95605,0.62943 1.65957,1.70866 1.96875,3.02012 0.23185,0.98343 0.2443,0.96875 -1.21117,1.42705 -3.01342,0.94888 -5.44988,1.33227 -9.31594,1.46593 -2.23325,0.0772 -2.08189,0.19255 -2.00619,-1.52887 0.0965,-2.19532 -0.14119,-6.52821 -0.56231,-10.24846 -0.21101,-1.86412 -1.08158,-8.60091 -1.12779,-8.72729 -0.0184,-0.0502 -0.31332,-0.25636 -0.65546,-0.45811 -0.34214,-0.20175 -2.16512,-1.32632 -4.05107,-2.49904 -5.37777,-3.344 -6.8646,-4.21249 -9.48267,-5.53899 -1.4596,-0.73954 -3.31721,-1.6149 -3.42697,-1.6149 -0.0216,0 0.3273,0.56197 0.77529,1.24883 1.79864,2.75763 3.58302,5.71868 3.58302,5.94573 0,0.22186 -0.50018,6.37021 -0.67862,8.34177 -0.0927,1.02447 -0.30403,3.30684 -0.46958,5.07196 -0.24481,2.61015 -0.28032,3.2224 -0.19023,3.27953 0.0609,0.0386 0.26316,0.0712 0.44943,0.0724 0.18626,0.001 0.81491,0.0765 1.397,0.16738 2.34172,0.3655 3.47544,0.83362 4.49453,1.85584 0.36635,0.36749 0.7723,0.88057 0.94509,1.19452 0.42314,0.76883 0.83805,1.98389 0.75453,2.20966 -0.0818,0.22115 -0.94618,0.6033 -2.0057,0.88674 -2.34538,0.62744 -5.81113,0.69648 -10.70015,0.21316 -1.1697,-0.11563 -1.57735,-0.18632 -1.68284,-0.29182 -0.12917,-0.12916 -0.1254,-0.30255 0.0523,-2.40398 0.57904,-6.84771 0.90549,-11.2649 1.24005,-16.77865 l 0.20254,-3.33789 -0.67838,-1.01487 c -0.83871,-1.25473 -1.5175,-2.15735 -2.36637,-3.14669 -0.70772,-0.82483 -2.4502,-2.55703 -3.22564,-3.20662 l -0.48171,-0.40353 -1.08463,0.37982 c -3.0425,1.06546 -5.63046,2.15641 -8.49295,3.58022 -1.96423,0.97701 -4.50176,2.37602 -4.70996,2.59674 -0.0795,0.0842 -0.45862,1.93414 -1.26153,6.15504 -0.72272,3.79937 -1.21896,7.75165 -1.8101,14.41633 -0.20821,2.34739 -0.3668,3.75188 -0.4326,3.83116 -0.12717,0.15324 -0.57754,0.15021 -1.73415,-0.0117 z m 1.51391,-3.10165 c 0.5379,-6.16412 0.88549,-9.19795 1.45264,-12.67884 0.43993,-2.70012 1.4787,-8.20737 1.65362,-8.76701 0.0663,-0.21213 0.26492,-0.36556 1.1169,-0.86276 2.50166,-1.45994 5.37614,-2.88653 8.15084,-4.04522 2.20795,-0.92203 5.35836,-2.07301 5.67413,-2.07301 0.41931,0 3.2408,2.68713 4.62307,4.40292 0.81346,1.00973 1.9248,2.56223 2.35748,3.29327 l 0.33073,0.55881 -0.20535,3.38667 c -0.33303,5.49238 -0.6831,10.26988 -1.14962,15.68899 -0.14553,1.6905 -0.25075,3.08662 -0.23381,3.10248 0.0169,0.0159 0.6785,0.0899 1.47013,0.16446 5.69569,0.53672 8.93219,0.37767 11.303,-0.55546 0.25611,-0.1008 0.47907,-0.19345 0.49546,-0.20589 0.0655,-0.0497 -0.2825,-0.96148 -0.61077,-1.59991 -0.96125,-1.86953 -2.57239,-2.63899 -6.30582,-3.01158 -0.9632,-0.0961 -1.05182,-0.1197 -1.13485,-0.30191 -0.0675,-0.14823 -6.7e-4,-1.15603 0.26737,-4.03009 0.40815,-4.3764 0.68176,-7.50577 0.93921,-10.74225 l 0.17924,-2.25316 -0.90853,-1.51451 c -1.02611,-1.71052 -1.99453,-3.23587 -3.18683,-5.01951 -0.79903,-1.19534 -0.81208,-1.22282 -0.67217,-1.41551 0.0785,-0.10807 0.18079,-0.19806 0.22736,-0.19996 0.1796,-0.007 2.44882,1.00447 4.10633,1.83096 2.64155,1.31717 4.29382,2.27778 9.73666,5.66076 1.88595,1.17221 3.77988,2.33742 4.20873,2.58935 0.5118,0.30067 0.80777,0.53081 0.86134,0.66974 0.0449,0.11642 0.16145,0.84032 0.25903,1.60867 0.0976,0.76835 0.34696,2.7305 0.55417,4.36033 0.69336,5.45352 0.90199,8.13581 0.92033,11.83212 l 0.0121,2.43412 0.635,-8.5e-4 c 1.83471,-0.002 4.85452,-0.27843 6.50885,-0.59532 1.53348,-0.29374 4.0789,-0.99843 4.27525,-1.18359 0.0923,-0.087 -0.22847,-1.16144 -0.51626,-1.72937 -0.31405,-0.61976 -1.14093,-1.4058 -1.81845,-1.72865 -0.99645,-0.47482 -2.56914,-0.77354 -4.0726,-0.77354 -0.50446,0 -0.65304,-0.0308 -0.76931,-0.15922 -0.11691,-0.12919 -0.21523,-0.86003 -0.52112,-3.8735 -0.42829,-4.21943 -0.62959,-5.87862 -0.9334,-7.69361 -0.34884,-2.08389 -0.96261,-4.87718 -1.14872,-5.22777 -0.1416,-0.26675 -3.7838,-2.77768 -6.38658,-4.40289 -2.51271,-1.56899 -5.11191,-3.04821 -7.79036,-4.43355 l -1.70037,-0.87938 h -4.69197 c -6.13797,-8.5e-4 -10.94139,-0.17325 -14.20539,-0.51101 l -0.79277,-0.082 -1.36623,0.60043 c -3.80175,1.67079 -8.4812,4.19365 -11.48144,6.19007 l -0.54787,0.36456 -0.62185,1.82034 c -1.93941,5.67726 -2.37672,7.48448 -3.23912,13.38594 -0.23309,1.59504 -0.46132,2.94528 -0.50718,3.00054 -0.0459,0.0553 -0.4926,0.14526 -0.99275,0.19999 -1.41528,0.15485 -2.88466,0.4066 -3.53432,0.60552 -1.28572,0.39368 -2.25011,1.06618 -2.96441,2.06718 -0.45738,0.64096 -1.00811,1.77672 -0.94335,1.94546 0.21674,0.56481 3.02532,1.5887 6.28361,2.29074 1.9838,0.42744 6.06603,1.09776 6.90196,1.13334 l 0.21818,0.009 0.23088,-2.64584 z m 30.77056,-31.05821 c 1.95212,-0.14343 1.79815,-0.0665 2.02599,-1.01277 0.10605,-0.44047 0.21715,-1.07769 0.24689,-1.41605 0.0514,-0.58496 -0.10431,-2.53383 -0.21702,-2.71621 -0.0872,-0.1411 -5.45622,-0.48175 -10.97233,-0.69616 -2.93556,-0.11411 -8.66109,-0.0616 -9.60966,0.0881 -0.96009,0.15151 -1.03109,0.20319 -1.1667,0.84918 -0.16662,0.7937 -0.0846,2.52302 0.16868,3.556 l 0.19721,0.80433 0.46391,0.0209 c 0.25514,0.0115 1.1116,0.0773 1.90323,0.14622 2.1493,0.18712 4.0187,0.30237 6.096,0.37585 2.88232,0.10195 9.47967,0.10234 10.8638,8.4e-4 z m -20.36871,-2.44863 -0.0425,-1.143 -0.77198,-0.79186 c -0.73501,-0.75393 -3.99651,-3.56847 -4.13517,-3.56847 -0.0362,0 -0.0665,0.0857 -0.0672,0.1905 -0.002,0.21843 -0.25667,0.66678 -0.65397,1.14949 l -0.27436,0.33335 0.86703,0.84856 c 0.95886,0.93843 1.9183,1.78112 3.07018,2.69661 0.75651,0.60125 2.00166,1.4882 2.03363,1.4486 0.009,-0.0114 -0.002,-0.53513 -0.0257,-1.16378 z m 21.65457,-3.71875 c 0,-0.0429 -0.12508,-0.24297 -0.27796,-0.4445 -0.19279,-0.25414 -0.46274,-0.45921 -0.88102,-0.66929 -0.58548,-0.29403 -0.64713,-0.30599 -2.11388,-0.40998 -2.41612,-0.17128 -6.46416,-0.20797 -10.57013,-0.0958 l -3.81,0.10409 -0.96467,0.50315 c -0.83934,0.43779 -1.75749,1.05036 -1.34586,0.89792 0.67978,-0.25173 7.43496,-0.28398 11.79319,-0.0563 1.59702,0.0834 5.14324,0.1967 7.34483,0.23459 0.45777,0.008 0.8255,-0.0206 0.8255,-0.0639 z m -28.07832,-0.64082 c 0.69359,-0.33138 1.04678,-1.19764 0.77016,-1.88897 -0.29882,-0.74683 -1.48875,-1.386 -2.21238,-1.18838 -0.75119,0.20515 -1.34986,1.22911 -1.13597,1.94299 0.12803,0.42734 0.55768,0.90818 1.03574,1.15917 0.43775,0.22982 1.02943,0.22031 1.54245,-0.0248 z m 26.44912,-1.61505 c 0.4007,-0.19968 1.25772,-1.01365 1.45462,-1.38156 0.15302,-0.28593 -0.76823,-1.44103 -1.53571,-1.92552 l -0.36138,-0.22813 -7.93509,0.0517 -7.93508,0.0517 -0.49058,0.23066 c -0.46421,0.21825 -1.54726,1.1536 -1.73033,1.49434 -0.0634,0.11801 0.001,0.254 0.30246,0.635 0.42004,0.53154 0.71932,0.76135 1.35923,1.04373 l 0.42194,0.18619 4.37347,-0.11116 c 4.17179,-0.10603 8.20243,-0.0733 10.06499,0.0818 1.37328,0.11435 1.54585,0.10331 2.01146,-0.12871 z m -23.58661,-5.18829 c 0.62637,-1.45535 1.76845,-4.94667 1.6552,-5.05992 -0.0186,-0.0186 -0.31625,-0.0698 -0.66144,-0.11379 -0.34518,-0.044 -0.90008,-0.19252 -1.2331,-0.3301 l -0.6055,-0.25013 -0.18681,0.52093 c -0.10274,0.28651 -0.74062,1.87347 -1.4175,3.52659 -1.1142,2.72116 -1.8837,4.67577 -1.8837,4.78481 0,0.0226 0.24156,0.0412 0.53681,0.0412 0.4271,0 0.64073,0.0519 1.04529,0.25409 0.27967,0.13975 0.57961,0.33268 0.66654,0.42874 0.15659,0.17303 0.16498,0.1608 0.91442,-1.3336 0.416,-0.82953 0.94241,-1.94049 1.16979,-2.46881 z m 23.36476,0.56573 c 0.65741,-0.49438 0.95401,-0.8167 1.20037,-1.30444 0.12815,-0.25371 0.1231,-0.27301 -0.2103,-0.80433 -0.41877,-0.66736 -0.60151,-0.8715 -1.07101,-1.19645 -0.32025,-0.22166 -0.4727,-0.26209 -1.22767,-0.32562 -3.85445,-0.32434 -7.11537,-0.42345 -11.19621,-0.34029 -3.75725,0.0766 -3.49211,0.034 -4.406,0.70685 -0.3415,0.25141 -0.65319,0.5861 -0.92099,0.98892 -0.46557,0.70032 -0.46697,0.68994 0.19194,1.42185 0.2415,0.26826 0.72836,0.64161 1.23534,0.94732 l 0.83675,0.50457 7.45534,-0.0521 7.45533,-0.0521 z m -1.0135,-4.28699 c 0.0155,-0.0371 0.32161,-0.26918 0.68019,-0.51567 0.7229,-0.49693 0.93747,-0.7405 1.32003,-1.49843 l 0.26008,-0.51527 -0.42304,-0.64712 c -0.23268,-0.35592 -0.67722,-0.87652 -0.98787,-1.1569 -0.51272,-0.46275 -0.60007,-0.50998 -0.94699,-0.51208 -0.2102,-0.001 -0.95368,-0.039 -1.65218,-0.0839 -1.57904,-0.10146 -12.4195,-0.10886 -12.48372,-0.009 -0.0258,0.0403 -0.40889,0.27249 -0.85128,0.51589 -0.82299,0.45282 -1.17715,0.73495 -1.62266,1.29259 l -0.25305,0.31675 0.40869,0.76682 c 0.40781,0.76516 0.78761,1.23593 1.31512,1.63011 l 0.2789,0.2084 3.048,-0.0531 c 3.48357,-0.0607 7.65186,0.0204 9.69433,0.18856 1.74014,0.14326 2.17963,0.15752 2.21545,0.0718 z m -20.41013,-2.24034 c 0.85887,-0.57077 0.88544,-2.16108 0.0448,-2.68063 -0.2609,-0.16125 -0.37612,-0.1805 -0.79317,-0.13253 -1.17775,0.13545 -1.70007,0.40802 -1.92861,1.00643 -0.18852,0.49363 -0.11544,0.89121 0.23775,1.29347 0.58961,0.67153 1.81354,0.92907 2.43925,0.51326 z m -16.63627,-0.93469 c 0.23799,-0.12084 0.6513,-0.35138 0.91847,-0.51232 0.54412,-0.32777 2.41649,-1.75096 2.41649,-1.83678 0,-0.0304 -0.1554,-0.12539 -0.34533,-0.21103 -0.18993,-0.0857 -0.55377,-0.36416 -0.80853,-0.61893 l -0.4632,-0.4632 -0.22864,0.18177 c -0.71434,0.56793 -2.04033,1.38382 -2.84284,1.74921 l -0.92088,0.41929 -0.43379,-0.24152 c -0.23859,-0.13283 -0.81479,-0.54004 -1.28046,-0.90491 -0.46567,-0.36486 -1.01812,-0.79033 -1.22767,-0.94548 l -0.381,-0.28208 -0.0423,-1.39291 -0.0423,-1.39291 -1.2374,-0.0234 -1.23739,-0.0234 -0.0528,0.3197 c -0.0682,0.41237 -0.0567,2.6536 0.0162,3.17911 0.0521,0.37538 0.0982,0.43766 0.64874,0.8769 1.02197,0.8153 2.42491,1.70279 3.84977,2.43535 l 1.37404,0.70642 0.9441,-0.39963 c 0.51925,-0.21979 1.13881,-0.49849 1.3768,-0.61932 z m 13.52816,-1.31181 c 0.17673,-0.34176 0.69646,-0.76194 1.08863,-0.88012 0.17462,-0.0526 0.3175,-0.1238 0.3175,-0.15818 0,-0.1156 -2.39333,-1.02681 -4.90908,-1.86904 -1.37284,-0.45961 -2.50089,-0.83565 -2.50677,-0.83565 -0.006,0 -0.0346,0.22907 -0.0639,0.50904 -0.0675,0.64547 -0.27681,1.05447 -0.77455,1.51328 -0.21702,0.20003 -0.38215,0.37266 -0.36697,0.3836 0.0267,0.0193 0.30226,0.13383 3.11793,1.29635 0.72179,0.298 1.86425,0.70664 2.5388,0.90809 l 1.22647,0.36627 0.0997,-0.48861 c 0.0548,-0.26873 0.15934,-0.604 0.23227,-0.74503 z m 24.50609,-1.43582 c 0.84574,-0.85705 1.19937,-1.77037 1.19937,-3.09762 v -0.75487 l -1.24883,0.0528 c -0.68686,0.029 -4.89691,0.0771 -9.35567,0.10671 -4.45876,0.0296 -8.10683,0.0728 -8.10683,0.096 0,0.0231 0.13971,0.51725 0.31047,1.09804 0.32878,1.11827 0.65729,1.73038 1.30689,2.43512 l 0.35154,0.38137 5.89472,0.0108 c 3.24209,0.006 6.31381,0.0375 6.82604,0.0702 0.51224,0.0327 1.24871,0.066 1.63661,0.0739 l 0.70527,0.0144 z m -32.28629,-0.33839 c 0.43263,-0.22476 0.84421,-0.65431 1.0117,-1.05589 0.33036,-0.79206 0.0366,-2.19104 -0.59313,-2.82487 -0.41636,-0.41907 -0.83955,-0.54335 -1.85012,-0.54335 -0.68545,0 -0.73645,0.0131 -1.0191,0.26124 -0.63867,0.56076 -1.06757,1.92378 -0.89736,2.8518 0.13611,0.74215 0.43731,1.06753 1.27367,1.37597 0.60771,0.22412 1.57635,0.19381 2.07434,-0.0649 z m 31.62299,-4.08605 c 1.54654,-0.0846 2.02311,-0.13764 2.1398,-0.23833 0.0826,-0.0712 0.21132,-0.34001 0.28611,-0.59725 0.20291,-0.698 0.1181,-1.63309 -0.21211,-2.33875 l -0.25757,-0.5504 -5.86761,-2.5e-4 c -6.10302,-2.6e-4 -13.13623,0.13556 -13.36686,0.25809 -0.22268,0.11831 -0.4599,1.06528 -0.45503,1.81647 0.003,0.52404 0.0524,0.79231 0.2164,1.18534 0.20599,0.49358 0.22269,0.50955 0.58828,0.56254 0.68432,0.0992 14.82051,0.0178 16.92859,-0.0975 z m -30.60613,-1.56712 c 0.2828,-1.49564 0.35488,-3.0708 0.21325,-4.66018 l -0.10732,-1.20427 -1.40806,-0.67893 c -0.77444,-0.37341 -1.78247,-0.81743 -2.24007,-0.98673 -0.97572,-0.36097 -2.78742,-0.89283 -3.04131,-0.89283 -0.25453,0 -1.46353,0.67267 -2.68835,1.49576 -1.56697,1.05301 -1.42739,0.89748 -1.19207,1.32824 0.34495,0.63147 1.10722,1.66333 1.22876,1.66333 0.0641,0 0.51064,-0.2586 0.99239,-0.57467 1.42276,-0.93345 1.66252,-1.05629 1.96352,-1.00604 0.49007,0.0818 3.0622,0.80707 3.44645,0.97178 0.20845,0.0893 0.42283,0.21529 0.47639,0.27986 0.0573,0.0691 0.12103,0.63974 0.1549,1.38741 0.0545,1.20309 -0.0116,2.02699 -0.25893,3.22567 l -0.0541,0.26234 0.6588,0.0498 c 0.49479,0.0374 0.77605,0.11089 1.12985,0.29513 0.25908,0.13492 0.47803,0.24147 0.48655,0.23679 0.008,-0.005 0.11624,-0.54131 0.23937,-1.19248 z m 22.73214,-2.74764 c 2.86385,-0.0442 5.86773,-0.10519 6.6753,-0.13557 l 1.46831,-0.0553 0.3839,-0.59345 c 3.62728,-5.6072 4.12663,-19.40632 0.94575,-26.1351 -0.7943,-1.680251 -1.70111,-2.803224 -2.93909,-3.639683 -1.96281,-1.326207 -3.74923,-1.534077 -5.52003,-0.642318 l -0.59391,0.299091 0.42079,0.505639 c 1.2212,1.467418 1.99915,3.523412 2.33668,6.175488 0.19641,1.543297 0.13752,4.571893 -0.11779,6.057513 -0.47458,2.76151 -1.23511,4.65809 -2.29407,5.72083 -0.4239,0.42541 -0.64792,0.58203 -0.95296,0.66622 -1.47378,0.40678 -2.8276,-1.09008 -3.97289,-4.39267 -0.60487,-1.74419 -1.00466,-3.35783 -1.00466,-4.05499 0,-1.335068 0.44137,-3.47633 1.05964,-5.140698 0.70908,-1.908824 2.06756,-4.118732 3.15844,-5.138006 l 0.42952,-0.401317 -0.27064,-0.203046 c -1.51525,-1.136796 -3.91996,-1.304916 -6.57829,-0.459859 -2.9902,0.950552 -4.55849,2.92549 -5.26508,6.630256 -0.17512,0.918162 -0.19374,1.260594 -0.19339,3.556 5.1e-4,3.0795 0.21312,4.99529 0.93978,8.46667 0.84148,4.01987 2.8534,10.4705 3.91432,12.55007 l 0.17863,0.35013 -0.1893,0.0365 c -0.34845,0.0673 2.72814,0.0586 7.98104,-0.0224 z m -8.93945,-1.11288 c -0.25251,-0.61064 -0.74727,-1.95366 -1.09946,-2.9845 -2.92496,-8.56111 -4.04374,-16.25537 -3.08557,-21.22059 0.43458,-2.251974 1.23456,-3.863688 2.53394,-5.105104 0.82684,-0.789955 1.61292,-1.234639 2.9377,-1.661844 1.44821,-0.467007 2.52726,-0.632557 3.74793,-0.575016 1.42392,0.06712 2.51111,0.413675 3.47883,1.108914 l 0.3927,0.282124 0.51517,-0.311499 c 1.11335,-0.673197 2.55438,-0.918458 3.81817,-0.649845 1.26789,0.269483 3.00328,1.306974 3.98195,2.380579 1.89069,2.074077 3.12089,5.676475 3.67269,10.754691 0.14952,1.37612 0.14906,6.92772 -6.8e-4,8.29734 -0.47112,4.30857 -1.44019,7.9026 -2.68204,9.94689 -0.16346,0.26909 -0.2972,0.51724 -0.2972,0.55144 0,0.0859 0.78141,-0.0147 2.00089,-0.25763 10.54549,-2.10101 18.36695,-11.72825 19.72687,-24.281286 0.16882,-1.558422 0.18924,-4.749525 0.0396,-6.194754 -0.71074,-6.865567 -3.39476,-12.649973 -7.89895,-17.023251 -0.57281,-0.556144 -1.36531,-1.270043 -1.76113,-1.586443 -5.70933,-4.563812 -13.51806,-6.912815 -22.35199,-6.723872 -5.12307,0.109573 -9.35118,1.089119 -13.37734,3.099192 -3.67754,1.836026 -6.95467,4.736381 -9.16644,8.11257 -2.30125,3.512769 -3.72585,7.520691 -4.34242,12.216804 -0.18803,1.43208 -0.25964,5.354262 -0.12775,6.996727 0.55334,6.890823 2.89207,13.225063 6.7011,18.149273 0.82614,1.06801 2.62523,2.90375 3.67585,3.75072 2.09169,1.68626 4.35794,2.87599 6.731,3.53364 0.90482,0.25076 2.0612,0.48365 2.46966,0.49738 l 0.22601,0.008 z m 8.72875,-11.28837 c 1.78379,-0.74532 3.22368,-5.97155 2.91513,-10.580827 -0.15162,-2.26506 -0.53614,-3.861923 -1.30662,-5.426227 -0.41076,-0.833987 -1.2896,-2.074333 -1.46975,-2.074333 -0.17755,0 -1.36161,1.321001 -1.88721,2.105472 -1.24603,1.859727 -2.12533,4.19193 -2.48829,6.599773 -0.19723,1.308432 -0.16423,1.937872 0.16728,3.190422 1.04064,3.9319 2.37774,6.28366 3.58438,6.30436 0.10627,0.002 0.32455,-0.0516 0.48508,-0.11864 z"
       id="path4557"
       inkscape:connector-curvature="0" />
  </g>
</svg>
